<?xml version="1.0" encoding="UTF-8"?>
<svg id="Layer_1" xmlns="http://www.w3.org/2000/svg" width="50" height="50" viewBox="0 0 50 50">
  <path d="M34.43,0c-.8,0-1.42.61-1.42,1.42s.61,1.42,1.42,1.42h10.76l-21.89,21.89c-.57.57-.57,1.46,0,1.98.28.28.66.42.99.42s.71-.14.99-.42L47.17,4.81v10.76c0,.8.61,1.42,1.42,1.42s1.42-.61,1.42-1.42V1.42c0-.8-.61-1.42-1.42-1.42h-14.15ZM6.13,9.43c-3.4,0-6.13,2.74-6.13,6.13v28.3c0,3.4,2.74,6.13,6.13,6.13h28.3c3.4,0,6.13-2.74,6.13-6.13v-21.23c0-.8-.61-1.42-1.42-1.42s-1.42.61-1.42,1.42v21.23c0,1.84-1.46,3.3-3.3,3.3H6.13c-1.84,0-3.3-1.46-3.3-3.3V15.57c0-1.84,1.46-3.3,3.3-3.3h21.23c.8,0,1.42-.61,1.42-1.42s-.61-1.42-1.42-1.42H6.13Z"/>
</svg>