<?xml version="1.0" encoding="UTF-8"?>
<svg xmlns="http://www.w3.org/2000/svg" version="1.1" viewBox="0 0 50 50">
  <defs>
    <style>
      .cls-1 {
        stroke: #fff;
        stroke-miterlimit: 10;
      }

      .cls-1, .cls-2 {
        fill: #fff;
      }
    </style>
  </defs>
  <!-- Generator: Adobe Illustrator 28.6.0, SVG Export Plug-In . SVG Version: 1.2.0 Build 709)  -->
  <g>
    <g id="Layer_1">
      <g id="Layer_1-2" data-name="Layer_1">
        <g>
          <path class="cls-2" d="M26.5,10.1c-2.2.2-5.9,1.9-5.9,6.8v4.5h-4.8v5.4h4.8v13.2h5.8v-13.2h4.4l.7-5.4h-5.1v-2.8c0-1.4,0-2.8,1.7-3.4,1-.4,3.6-.2,3.6-.2v-4.5s-2.9-.6-5.1-.4c0,0-.1,0-.1,0Z"/>
          <path class="cls-1" d="M25,0C11.2,0,0,11.2,0,25s11.2,25,25,25,25-11.2,25-25S38.8,0,25,0ZM31.6,15s-2.6-.2-3.6.2c-1.7.6-1.7,2-1.7,3.4v2.8h5.1l-.7,5.4h-4.4v13.2h-5.8v-13.2h-4.8v-5.4h4.8v-4.5c0-4.8,3.7-6.6,5.9-6.8,2.2-.2,5.1.4,5.1.4v4.5s.1,0,.1,0Z"/>
        </g>
      </g>
    </g>
  </g>
</svg>