<?xml version="1.0" encoding="UTF-8"?>
<svg xmlns="http://www.w3.org/2000/svg" version="1.1" viewBox="0 0 50 50">
  <defs>
    <style>
      .cls-1 {
        fill: #fff;
      }
    </style>
  </defs>
  <!-- Generator: Adobe Illustrator 28.6.0, SVG Export Plug-In . SVG Version: 1.2.0 Build 709)  -->
  <g>
    <g id="Layer_1">
      <g id="Layer_1-2" data-name="Layer_1">
        <g>
          <path class="cls-1" d="M26.4,10.7c-2.1.2-5.7,1.9-5.7,6.5v4.4h-4.6v5.1h4.6v12.7h5.5v-12.7h4.2l.7-5.1h-4.9v-2.7c0-1.3,0-2.7,1.6-3.3,1-.4,3.4-.2,3.4-.2v-4.3s-2.8-.6-4.9-.4h0Z"/>
          <path class="cls-1" d="M25,50c-6.7,0-13-2.6-17.7-7.3C2.6,38,0,31.7,0,25S2.6,12,7.3,7.3C12,2.6,18.3,0,25,0s13,2.6,17.7,7.3c4.7,4.7,7.3,11,7.3,17.7s-2.6,13-7.3,17.7-11,7.3-17.7,7.3ZM25,2.1C12.4,2.1,2.1,12.4,2.1,25s10.3,22.9,22.9,22.9,22.9-10.3,22.9-22.9S37.7,2.1,25,2.1Z"/>
        </g>
      </g>
    </g>
  </g>
</svg>