<?xml version="1.0" encoding="UTF-8"?>
<svg xmlns="http://www.w3.org/2000/svg" version="1.1" viewBox="0 0 50 50">
  <defs>
    <style>
      .cls-1 {
        fill: #010101;
      }

      .cls-2 {
        fill: #fff;
      }
    </style>
  </defs>
  <!-- Generator: Adobe Illustrator 28.6.0, SVG Export Plug-In . SVG Version: 1.2.0 Build 709)  -->
  <g>
    <g id="Layer_1">
      <g>
        <circle class="cls-2" cx="32.6" cy="17.4" r="1.8"/>
        <path class="cls-2" d="M25,32.1c3.9,0,7.1-3.2,7.1-7.1s-3.2-7.1-7.1-7.1-7.1,3.2-7.1,7.1,3.2,7.1,7.1,7.1ZM25,20.4c2.6,0,4.6,2.1,4.6,4.6s-2.1,4.6-4.6,4.6-4.6-2.1-4.6-4.6,2.1-4.6,4.6-4.6Z"/>
        <path class="cls-2" d="M17.9,39.3h14.3c3.9,0,7.1-3.2,7.1-7.1v-14.3c0-3.9-3.2-7.1-7.1-7.1h-14.3c-3.9,0-7.1,3.2-7.1,7.1v14.3c0,3.9,3.2,7.1,7.1,7.1ZM13.2,17.9c0-2.6,2.1-4.6,4.6-4.6h14.3c2.6,0,4.6,2.1,4.6,4.6v14.3c0,2.6-2.1,4.6-4.6,4.6h-14.3c-2.6,0-4.6-2.1-4.6-4.6,0,0,0-14.3,0-14.3Z"/>
        <path class="cls-1" d="M17.9,36.8h14.3c2.6,0,4.6-2.1,4.6-4.6v-14.3c0-2.6-2.1-4.6-4.6-4.6h-14.3c-2.6,0-4.6,2.1-4.6,4.6v14.3c0,2.6,2.1,4.6,4.6,4.6ZM32.6,15.6c1,0,1.8.8,1.8,1.8s-.8,1.8-1.8,1.8-1.8-.8-1.8-1.8.8-1.8,1.8-1.8ZM25,17.9c3.9,0,7.1,3.2,7.1,7.1s-3.2,7.1-7.1,7.1-7.1-3.2-7.1-7.1,3.2-7.1,7.1-7.1Z"/>
        <path class="cls-1" d="M25,29.6c2.6,0,4.6-2.1,4.6-4.6s-2.1-4.6-4.6-4.6-4.6,2.1-4.6,4.6,2.1,4.6,4.6,4.6Z"/>
        <path class="cls-1" d="M25,50c13.8,0,25-11.2,25-25S38.8,0,25,0,0,11.2,0,25s11.2,25,25,25ZM10.7,17.9c0-3.9,3.2-7.1,7.1-7.1h14.3c3.9,0,7.1,3.2,7.1,7.1v14.3c0,3.9-3.2,7.1-7.1,7.1h-14.3c-3.9,0-7.1-3.2-7.1-7.1,0,0,0-14.3,0-14.3Z"/>
      </g>
    </g>
  </g>
</svg>