<?xml version="1.0" encoding="UTF-8"?>
<svg xmlns="http://www.w3.org/2000/svg" version="1.1" viewBox="0 0 50 50">
  <defs>
    <style>
      .cls-1 {
        fill: #fff;
      }
    </style>
  </defs>
  <!-- Generator: Adobe Illustrator 28.6.0, SVG Export Plug-In . SVG Version: 1.2.0 Build 709)  -->
  <g>
    <g id="Layer_1">
      <circle class="cls-1" cx="32.3" cy="17.7" r="1.7"/>
      <path class="cls-1" d="M25,31.9c3.8,0,6.9-3.1,6.9-6.9s-3.1-6.9-6.9-6.9-6.9,3.1-6.9,6.9,3.1,6.9,6.9,6.9ZM25,20.5c2.5,0,4.5,2,4.5,4.5s-2,4.5-4.5,4.5-4.5-2-4.5-4.5,2-4.5,4.5-4.5Z"/>
      <path class="cls-1" d="M18.1,38.7h13.7c3.8,0,6.8-3.1,6.8-6.9v-13.7c0-3.8-3.1-6.9-6.9-6.9h-13.7c-3.8,0-6.9,3.1-6.9,6.9v13.7c0,3.8,3.1,6.8,6.9,6.8ZM13.7,18.1c0-2.5,2-4.4,4.4-4.4h13.7c2.5,0,4.5,2,4.5,4.4v13.7c0,2.5-2,4.5-4.5,4.5h-13.7c-2.5,0-4.4-2-4.4-4.5,0,0,0-13.7,0-13.7Z"/>
      <path class="cls-1" d="M25,50c-6.7,0-13-2.6-17.7-7.3C2.6,38,0,31.7,0,25S2.6,12,7.3,7.3C12,2.6,18.3,0,25,0s13,2.6,17.7,7.3c4.7,4.7,7.3,11,7.3,17.7s-2.6,13-7.3,17.7-11,7.3-17.7,7.3ZM25,2C12.3,2,2,12.3,2,25s10.3,23,23,23,23-10.3,23-23S37.7,2,25,2Z"/>
    </g>
  </g>
</svg>