<?xml version="1.0" encoding="UTF-8"?>
<svg xmlns="http://www.w3.org/2000/svg" version="1.1" viewBox="0 0 50 50">
  <defs>
    <style>
      .cls-1 {
        fill: #010101;
      }

      .cls-2 {
        fill: #fff;
      }
    </style>
  </defs>
  <!-- Generator: Adobe Illustrator 28.6.0, SVG Export Plug-In . SVG Version: 1.2.0 Build 709)  -->
  <g>
    <g id="Layer_1">
      <g>
        <path class="cls-2" d="M10,26.1l6.8,2.3,15.7-9.9c.1,0,.3,0,.4,0,.1.1.1.3,0,.5l-12.2,11.2-.7,6.6h0c.2.3.5.3.8.1l3.9-3.7,6.5,4.8c.2.1.4.2.6.3.8.2,1.7-.4,1.8-1.2l4.4-21.2c0-.2,0-.5,0-.7-.2-.6-.9-.9-1.6-.7l-26.4,9.9c-.3.1-.5.3-.6.6-.2.5.1,1,.6,1.2h0Z"/>
        <path class="cls-1" d="M25,50c13.8,0,25-11.2,25-25S38.8,0,25,0,0,11.2,0,25s11.2,25,25,25ZM9.4,24.9c0-.3.3-.5.6-.6l26.4-9.9c.6-.2,1.3,0,1.6.7,0,.2,0,.4,0,.7l-4.4,21.2c-.2.8-1,1.4-1.9,1.2-.2,0-.4-.1-.6-.3l-6.5-4.8-3.9,3.7c-.2.2-.5.2-.8,0h0c0,0,.7-6.7.7-6.7l12.3-11.2c.1-.1.1-.3,0-.5-.1-.1-.3-.1-.4,0l-15.7,9.9-6.8-2.3c-.5-.2-.7-.7-.6-1.2h0Z"/>
      </g>
    </g>
  </g>
</svg>