<?xml version="1.0" encoding="UTF-8"?>
<svg xmlns="http://www.w3.org/2000/svg" version="1.1" viewBox="0 0 50 50">
  <defs>
    <style>
      .cls-1 {
        fill: #fff;
      }
    </style>
  </defs>
  <!-- Generator: Adobe Illustrator 28.6.0, SVG Export Plug-In . SVG Version: 1.2.0 Build 709)  -->
  <g>
    <g id="Layer_1">
      <g id="Layer_1-2" data-name="Layer_1">
        <g>
          <path class="cls-1" d="M10.6,26.1l6.5,2.2,15-9.5h.4c0,.1,0,.3,0,.4l-11.8,10.7-.6,6.3h0c.2.3.5.3.7,0l3.8-3.5,6.2,4.6c.2,0,.4.2.6.3.8.2,1.6-.3,1.8-1.2l4.3-20.3v-.6c-.2-.6-.9-.9-1.5-.7l-25.3,9.5c-.2,0-.4.3-.5.5-.1.5,0,1,.6,1.1h-.2Z"/>
          <path class="cls-1" d="M25,50c-6.7,0-13-2.6-17.7-7.3C2.6,38,0,31.7,0,25S2.6,12,7.3,7.3C12,2.6,18.3,0,25,0s13,2.6,17.7,7.3c4.7,4.7,7.3,11,7.3,17.7s-2.6,13-7.3,17.7-11,7.3-17.7,7.3ZM25,2C12.3,2,2,12.3,2,25s10.3,23,23,23,23-10.3,23-23S37.7,2,25,2Z"/>
        </g>
      </g>
    </g>
  </g>
</svg>