<?xml version="1.0" encoding="UTF-8"?>
<svg id="Layer_1" xmlns="http://www.w3.org/2000/svg" width="50" height="50" viewBox="0 0 50 50">
  <defs>
    <style>
      .cls-1 {
        fill: #010101;
      }
    </style>
  </defs>
  <polygon class="cls-1" points="13.83 12.78 32.11 37.22 36.24 37.22 17.97 12.78 13.83 12.78"/>
  <path class="cls-1" d="M25,0h0C11.19,0,0,11.19,0,25h0c0,13.81,11.19,25,25,25h0c13.81,0,25-11.19,25-25h0C50,11.19,38.81,0,25,0ZM31.13,39.17l-8.32-11.13-10.3,11.13h-2.65l11.76-12.71-11.69-15.63h9.01l7.66,10.25,9.48-10.25h2.65l-10.95,11.83,12.35,16.51h-9.01Z"/>
</svg>