<?xml version="1.0" encoding="UTF-8"?>
<svg xmlns="http://www.w3.org/2000/svg" version="1.1" viewBox="0 0 50 50">
  <defs>
    <style>
      .cls-1 {
        fill: #fff;
      }
    </style>
  </defs>
  <!-- Generator: Adobe Illustrator 28.6.0, SVG Export Plug-In . SVG Version: 1.2.0 Build 709)  -->
  <g>
    <g id="Layer_1">
      <path class="cls-1" d="M9.9,10.8l11.7,15.6-11.8,12.7h2.6l10.3-11.1,8.3,11.1h9l-12.4-16.5,10.9-11.8h-2.7l-9.5,10.2-7.7-10.2h-9ZM13.8,12.8h4.1l18.3,24.4h-4.1L13.8,12.8Z"/>
      <path class="cls-1" d="M25,50C11.2,50,0,38.8,0,25S11.2,0,25,0s25,11.2,25,25-11.2,25-25,25ZM25,1.7C12.1,1.7,1.7,12.1,1.7,25s10.5,23.3,23.3,23.3,23.3-10.5,23.3-23.3S37.9,1.7,25,1.7Z"/>
    </g>
  </g>
</svg>