<?xml version="1.0" encoding="UTF-8"?>
<svg id="OBJECTS" xmlns="http://www.w3.org/2000/svg" width="572.49" height="419.94" xmlns:xlink="http://www.w3.org/1999/xlink" viewBox="0 0 572.49 419.94">
  <defs>
    <style>
      .cls-1 {
        fill: #ffb199;
      }

      .cls-2 {
        fill: #e2887d;
      }

      .cls-3 {
        filter: url(#drop-shadow-2);
      }

      .cls-4 {
        stroke-width: 1.77px;
      }

      .cls-4, .cls-5, .cls-6 {
        fill: none;
        stroke-miterlimit: 10;
      }

      .cls-4, .cls-6 {
        stroke: #ff5640;
      }

      .cls-7 {
        fill: #fff;
      }

      .cls-8 {
        fill: #ff8255;
      }

      .cls-9 {
        fill: #001433;
      }

      .cls-10 {
        filter: url(#drop-shadow-4);
      }

      .cls-11 {
        fill: #f66;
      }

      .cls-12 {
        filter: url(#drop-shadow-1);
      }

      .cls-13 {
        fill: #ffa94d;
      }

      .cls-14 {
        fill: #dd8d45;
      }

      .cls-15 {
        fill: #22689e;
      }

      .cls-16 {
        fill: #b2382b;
      }

      .cls-17 {
        fill: #003154;
      }

      .cls-18 {
        fill: #ff5640;
      }

      .cls-19 {
        fill: #ff553c;
      }

      .cls-20 {
        filter: url(#drop-shadow-3);
      }

      .cls-5 {
        stroke: #001433;
        stroke-width: .98px;
      }

      .cls-6 {
        stroke-width: 1.96px;
      }

      .cls-21 {
        fill: #000a19;
      }
    </style>
    <filter id="drop-shadow-1" filterUnits="userSpaceOnUse">
      <feOffset dx="1.96" dy="1.96"/>
      <feGaussianBlur result="blur" stdDeviation="0"/>
      <feFlood flood-color="#000" flood-opacity=".25"/>
      <feComposite in2="blur" operator="in"/>
      <feComposite in="SourceGraphic"/>
    </filter>
    <filter id="drop-shadow-2" filterUnits="userSpaceOnUse">
      <feOffset dx="1.96" dy="1.96"/>
      <feGaussianBlur result="blur-2" stdDeviation="0"/>
      <feFlood flood-color="#000" flood-opacity=".25"/>
      <feComposite in2="blur-2" operator="in"/>
      <feComposite in="SourceGraphic"/>
    </filter>
    <filter id="drop-shadow-3" filterUnits="userSpaceOnUse">
      <feOffset dx="1.96" dy="1.96"/>
      <feGaussianBlur result="blur-3" stdDeviation="0"/>
      <feFlood flood-color="#000" flood-opacity=".25"/>
      <feComposite in2="blur-3" operator="in"/>
      <feComposite in="SourceGraphic"/>
    </filter>
    <filter id="drop-shadow-4" filterUnits="userSpaceOnUse">
      <feOffset dx="1.96" dy="1.96"/>
      <feGaussianBlur result="blur-4" stdDeviation="0"/>
      <feFlood flood-color="#000" flood-opacity=".25"/>
      <feComposite in2="blur-4" operator="in"/>
      <feComposite in="SourceGraphic"/>
    </filter>
  </defs>
  <g>
    <g>
      <g>
        <g>
          <g>
            <path class="cls-11" d="M65.92,320s-14.04-83.93-44.41-68.58c-30.37,15.35,32,61.4,44.41,68.58Z"/>
            <path class="cls-11" d="M83.23,323.6s-38.21-44.74-14.04-55.19c24.17-10.45,14.04,55.19,14.04,55.19Z"/>
            <path class="cls-11" d="M93.35,352.68s-34.5-37.37-47.18-19.8c-12.68,17.57,47.18,19.8,47.18,19.8Z"/>
          </g>
          <g>
            <path class="cls-6" d="M27.06,264.16s51.93,98.95,126.39,111.69"/>
            <path class="cls-6" d="M73.43,283.75s8.82,16.33,11.43,54.87"/>
            <path class="cls-4" d="M59.24,338.66s13.31,9.56,47.26,17.67"/>
          </g>
        </g>
        <g>
          <path class="cls-6" d="M36.84,343.76s26.78,57.61,98.53,30.52"/>
          <g>
            <path class="cls-18" d="M44.52,356.73s7.21-10.27-12.46-21.14c0,0-6.43,17.42,12.46,21.14Z"/>
            <g>
              <path class="cls-18" d="M56.28,366.79s-8.95-6.96-1.39-16.93c0,0,8.68,7.96,1.39,16.93Z"/>
              <path class="cls-18" d="M55.04,367.49s-8.38,8.87-18.29-.25c0,0,9.43-8.49,18.29.25Z"/>
            </g>
            <g>
              <path class="cls-18" d="M73.36,376.4s-9.77-5.75-3.57-16.61c0,0,9.64,6.77,3.57,16.61Z"/>
              <path class="cls-18" d="M72.23,377.25s-7.17,9.88-18.17,2.12c0,0,8.25-9.63,18.17-2.12Z"/>
            </g>
            <g>
              <path class="cls-18" d="M92.75,380.4s-11.15-2.04-9.07-14.36c0,0,11.38,3.04,9.07,14.36Z"/>
              <path class="cls-18" d="M91.98,381.59s-3.33,11.75-16.33,8.24c0,0,4.43-11.89,16.33-8.24Z"/>
            </g>
            <g>
              <path class="cls-18" d="M114.43,379.94s-11.29.97-12.53-11.47c0,0,11.78-.06,12.53,11.47Z"/>
              <path class="cls-18" d="M114,381.3s-.12,12.21-13.59,12.25c0,0,1.15-12.63,13.59-12.25Z"/>
            </g>
          </g>
        </g>
        <g>
          <path class="cls-6" d="M89.76,210.27s-20.49,60.14,50.07,90.18"/>
          <g>
            <path class="cls-18" d="M86.34,224.95s12.31-2.44,5.62-23.88c0,0-16.69,8.14-5.62,23.88Z"/>
            <g>
              <path class="cls-18" d="M87.88,240.34s-1.65-11.22,10.7-13.19c0,0,.77,11.75-10.7,13.19Z"/>
              <path class="cls-18" d="M86.5,239.99s-12.19.61-13.04-12.83c0,0,12.68.39,13.04,12.83Z"/>
            </g>
            <g>
              <path class="cls-18" d="M93.58,259.1s-3.08-10.91,8.91-14.46c0,0,2.28,11.56-8.91,14.46Z"/>
              <path class="cls-18" d="M92.17,258.93s-12.01,2.18-14.59-11.04c0,0,12.62-1.25,14.59,11.04Z"/>
            </g>
            <g>
              <path class="cls-18" d="M104.82,275.4s-6.65-9.18,3.38-16.64c0,0,6.12,10.07-3.38,16.64Z"/>
              <path class="cls-18" d="M103.44,275.72s-10.53,6.18-17.5-5.34c0,0,11.42-5.52,17.5,5.34Z"/>
            </g>
            <g>
              <path class="cls-18" d="M120.79,290.06s-8.83-7.11-1.12-16.95c0,0,8.55,8.1,1.12,16.95Z"/>
              <path class="cls-18" d="M119.54,290.74s-8.53,8.74-18.28-.55c0,0,9.56-8.33,18.28.55Z"/>
            </g>
          </g>
        </g>
        <g>
          <path class="cls-6" d="M99.05,307.71s12.23,62.34,88.37,53.19"/>
          <g>
            <path class="cls-18" d="M103.4,322.14s9.45-8.25-7.04-23.5c0,0-10.41,15.38,7.04,23.5Z"/>
            <g>
              <path class="cls-18" d="M112.41,334.71s-7.02-8.9,2.69-16.77c0,0,6.53,9.81-2.69,16.77Z"/>
              <path class="cls-18" d="M111.04,335.1s-10.26,6.61-17.7-4.61c0,0,11.18-5.99,17.7,4.61Z"/>
            </g>
            <g>
              <path class="cls-18" d="M126.71,348.13s-8.11-7.92.51-16.98c0,0,7.74,8.88-.51,16.98Z"/>
              <path class="cls-18" d="M125.4,348.68s-9.32,7.88-18.15-2.29c0,0,10.32-7.38,18.15,2.29Z"/>
            </g>
            <g>
              <path class="cls-18" d="M144.58,356.65s-10.34-4.64-5.37-16.11c0,0,10.32,5.68,5.37,16.11Z"/>
              <path class="cls-18" d="M143.54,357.62s-6.04,10.61-17.83,4.1c0,0,7.15-10.48,17.83-4.1Z"/>
            </g>
            <g>
              <path class="cls-18" d="M165.73,361.39s-11.2-1.76-9.42-14.13c0,0,11.45,2.76,9.42,14.13Z"/>
              <path class="cls-18" d="M164.99,362.6s-3.03,11.83-16.12,8.65c0,0,4.13-11.99,16.12-8.65Z"/>
            </g>
          </g>
        </g>
        <g>
          <path class="cls-6" d="M286.53,272.54s17.2,61.16-54.89,87.33"/>
          <g>
            <path class="cls-18" d="M289.15,287.38s-12.16-3.1-4.32-24.15c0,0,16.22,9.03,4.32,24.15Z"/>
            <g>
              <path class="cls-18" d="M286.78,302.67s2.25-11.11-9.97-13.75c0,0-1.4,11.7,9.97,13.75Z"/>
              <path class="cls-18" d="M288.17,302.4s12.14,1.27,13.72-12.1c0,0-12.68-.3-13.72,12.1Z"/>
            </g>
            <g>
              <path class="cls-18" d="M280.07,321.09s3.67-10.73-8.11-14.92c0,0-2.9,11.42,8.11,14.92Z"/>
              <path class="cls-18" d="M281.49,321s11.88,2.83,15.17-10.23c0,0-12.54-1.94-15.17,10.23Z"/>
            </g>
            <g>
              <path class="cls-18" d="M267.96,336.75s7.14-8.81-2.48-16.8c0,0-6.65,9.72,2.48,16.8Z"/>
              <path class="cls-18" d="M269.32,337.15s10.18,6.75,17.76-4.38c0,0-11.1-6.13-17.76,4.38Z"/>
            </g>
            <g>
              <path class="cls-18" d="M251.21,350.53s9.2-6.62,2.03-16.86c0,0-8.98,7.63-2.03,16.86Z"/>
              <path class="cls-18" d="M252.42,351.27s8.04,9.19,18.29.45c0,0-9.1-8.84-18.29-.45Z"/>
            </g>
          </g>
        </g>
      </g>
      <rect class="cls-9" x="125.03" y="296.49" width="48.01" height="118.55" rx="9.8" ry="9.8" transform="translate(-50.85 25.87) rotate(-8.48)"/>
    </g>
    <g>
      <g>
        <g>
          <path class="cls-21" d="M200.47,115.44s37.06-23.14,58.64,11.07c21.58,34.21,29.55,121.76-3.28,127.8-32.84,6.04-55.82,1.51-51.6-48.3,4.22-49.81-3.75-90.56-3.75-90.56Z"/>
          <g>
            <g>
              <path class="cls-1" d="M220.56,210.76s-8.33,23.51,6.37,27.43c14.7,3.92,30.37-4.9,31.84,26.94,1.47,31.84-105.81,2.94-104.34-10.78s35.27-3.43,36.74-33.8,1.96-31.84,1.96-31.84l27.43,22.04Z"/>
              <path class="cls-2" d="M218.35,226.97c-.82-7.65,2.2-16.21,2.2-16.21l-27.43-22.04s0,4.52-.35,15.18c4.58,10.9,14.21,18.9,25.58,23.07Z"/>
            </g>
            <path class="cls-1" d="M210.76,127.47s46.54-13.57,46.54,44.57-56.33,52.33-69.56,8.24c-13.8-45.99,23.02-52.81,23.02-52.81Z"/>
          </g>
        </g>
        <g>
          <g>
            <path class="cls-21" d="M206.35,158.1s.09-.45.4-1.19c.31-.73.83-1.77,1.69-2.86.85-1.1,2.06-2.28,3.64-3.18.78-.46,1.66-.84,2.59-1.1.92-.3,1.91-.4,2.89-.48.98,0,1.96.04,2.89.24.47.08.93.18,1.36.33.44.13.87.26,1.28.45.83.31,1.57.72,2.26,1.11.68.42,1.3.83,1.83,1.27.55.4,1.01.83,1.41,1.22.41.36.73.73.99,1.03.52.59.79.96.79.96,0,0-.43-.16-1.14-.49-.7-.33-1.72-.77-2.9-1.26-.59-.26-1.25-.47-1.92-.73-.68-.22-1.39-.47-2.13-.64-.74-.2-1.5-.34-2.27-.44-.77-.11-1.55-.13-2.32-.12-.77.05-1.54.11-2.28.29-.74.17-1.46.39-2.15.67-1.38.55-2.59,1.32-3.62,2.05-1.01.75-1.83,1.46-2.39,1.99-.56.53-.88.86-.88.86Z"/>
            <path class="cls-21" d="M238.19,156.39s0-.35.1-.95c.1-.6.32-1.44.73-2.4.43-.96,1.06-2.05,2.05-3.04.48-.5,1.08-.96,1.75-1.34.66-.4,1.44-.65,2.24-.81.8-.15,1.62-.12,2.4,0,.76.15,1.48.39,2.11.71.64.31,1.18.69,1.67,1.07.47.4.9.78,1.24,1.18.36.38.64.77.88,1.12.25.33.43.66.58.92.29.53.43.85.43.85,0,0-.33-.15-.84-.43-.51-.29-1.24-.69-2.09-1.11-.42-.23-.88-.43-1.35-.64-.48-.19-.97-.39-1.48-.53-.51-.16-1.02-.24-1.53-.3-.51-.01-1.01-.04-1.49.07-.97.16-1.93.62-2.81,1.23-.88.6-1.66,1.34-2.33,2.01-.67.67-1.22,1.28-1.62,1.71-.4.44-.63.7-.63.7Z"/>
            <path class="cls-21" d="M241.13,162.76s.16.29.44.8c.28.5.68,1.21,1.15,2.07.24.42.51.86.8,1.32.29.46.62.92.96,1.37.33.46.75.85,1.14,1.19.41.3.83.57,1.22.57l.15.03h0c-.06,0,.14,0-.13.01h0s.03,0,.03,0h.06s.12-.02.12-.02c.15-.03.36-.03.45-.07.1-.1.23-.08.43-.26.38-.25.74-.68,1.04-1.12.61-.92,1.06-1.94,1.44-2.82.37-.89.67-1.65.87-2.2.21-.54.33-.86.33-.86,0,0,.2,1.35-.11,3.35-.16,1-.42,2.18-1.04,3.39-.34.59-.7,1.24-1.37,1.76-.18.13-.29.27-.54.38-.23.11-.48.21-.72.3-.21.06-.34.06-.51.09l-.12.02h-.06s-.03.01-.03.01h0c-.28.02-.08,0-.15.01h-.02s-.34-.04-.34-.04c-.94-.08-1.67-.58-2.25-1.07-.56-.52-.99-1.09-1.32-1.66-.36-.56-.62-1.13-.84-1.68-.24-.54-.4-1.07-.54-1.55-.28-.97-.42-1.8-.49-2.38-.07-.58-.07-.92-.07-.92Z"/>
            <path class="cls-21" d="M214.19,162.76s.16.29.44.8c.28.5.68,1.21,1.15,2.07.24.42.51.86.8,1.32.29.46.62.92.96,1.37.33.46.75.85,1.14,1.19.41.3.83.57,1.22.57l.15.03h0c-.06,0,.14,0-.13.01h0s.03,0,.03,0h.06s.12-.02.12-.02c.15-.03.36-.03.45-.07.1-.1.23-.08.43-.26.38-.25.74-.68,1.04-1.12.61-.92,1.06-1.94,1.44-2.82.37-.89.67-1.65.87-2.2.21-.54.33-.86.33-.86,0,0,.2,1.35-.11,3.35-.16,1-.42,2.18-1.04,3.39-.34.59-.7,1.24-1.37,1.76-.18.13-.29.27-.54.38-.23.11-.48.21-.72.3-.21.06-.34.06-.51.09l-.12.02h-.06s-.03.01-.03.01h0c-.28.02-.08,0-.15.01h-.02s-.34-.04-.34-.04c-.94-.08-1.67-.58-2.25-1.07-.56-.52-.99-1.09-1.32-1.66-.36-.56-.62-1.13-.84-1.68-.24-.54-.4-1.07-.54-1.55-.28-.97-.42-1.8-.49-2.38-.07-.58-.07-.92-.07-.92Z"/>
            <path class="cls-8" d="M235.99,162.27c.16.82.33,1.62.51,2.41.08.39.2.78.29,1.16.08.39.21.76.31,1.14.1.38.25.74.36,1.11.11.37.26.73.39,1.09.13.36.27.71.43,1.06.16.34.28.7.47,1.03l.51.99.58.94c.17.33.42.6.63.89.22.29.42.6.68.85.24.27.49.53.73.81l.81.72c.13.12.26.25.4.37l.45.32.89.66,1.73,1.28-1.65.89c-1.2.65-2.42,1.26-3.67,1.82-.62.3-1.27.54-1.9.82-.65.25-1.29.5-1.97.7.47-.53.96-1.01,1.46-1.5.51-.46,1-.95,1.53-1.39,1.03-.91,2.1-1.76,3.18-2.58l.08,2.17-1.17-.63-.58-.33c-.19-.12-.36-.26-.54-.4l-1.05-.83c-.32-.31-.62-.64-.93-.97-.32-.31-.58-.68-.84-1.04-.25-.37-.54-.71-.74-1.11l-.63-1.17c-.18-.4-.33-.82-.49-1.22-.18-.4-.27-.83-.39-1.25-.13-.42-.22-.84-.29-1.26-.08-.42-.16-.85-.19-1.27-.04-.43-.09-.85-.08-1.28-.02-.85,0-1.7.13-2.53.1-.83.28-1.66.57-2.45Z"/>
          </g>
          <g>
            <path class="cls-19" d="M220.56,189.7l24.98.49s-8.08,16.9-24.98-.49Z"/>
            <path class="cls-16" d="M220.56,189.7c.59.6,1.16,1.16,1.73,1.68,4.88-.65,9.72-.16,13.21,3.7.59.66,1.19,1.39,1.75,2.16,5.57-1.39,8.29-7.05,8.29-7.05l-24.98-.49Z"/>
          </g>
        </g>
      </g>
      <g>
        <g>
          <path class="cls-2" d="M264.64,284.24s-.98,57.8,1.47,57.8,61.23,15.68,63.68,25.96c2.45,10.29,4.41,30.86-4.41,3.43,0,0,7.35,38.21-6.37-.49,0,0-5.39,36.74-5.39-.49,0,0-4.9,33.31-5.39.49,0,0-62.7-.98-80.34-15.19-17.64-14.21,12.25-79.36,12.25-79.36l24.49,7.84Z"/>
          <g>
            <path class="cls-13" d="M245.54,289.63s13.72,1.47,22.53-1.96c0,0-.42-43.6-21.55-47.03-20.04-3.25-.98,48.99-.98,48.99Z"/>
            <path class="cls-14" d="M242.53,280.38c1.63,5.47,3.01,9.25,3.01,9.25,0,0,13.72,1.47,22.53-1.96,0,0-.13-13.56-3.91-26.15-5.78,7.45-13.31,13.7-21.63,18.86Z"/>
          </g>
        </g>
        <g>
          <path class="cls-14" d="M168.46,361.15s-26.73,16.66-27.75,42.13h125.41s-1.03-26.45-26.73-44.09c-25.7-17.64-70.93,1.96-70.93,1.96Z"/>
          <g>
            <path class="cls-13" d="M167.16,361.15s-31.35-48.99-26.45-87.2c4.9-38.21,23.51-33.8,31.35-33.8,0,0,11.76,25.47,36.74,22.04,26.97-3.7,29.39-23.02,29.39-23.02,0,0,15.68-2.45,20.08,12.74,4.41,15.19,11.76,57.8-14.21,65.15l-5.88,29.88s-24,23.51-71.03,14.21Z"/>
            <path class="cls-14" d="M189.04,298.86c-11.1-5.71-21.13-13.24-30.71-21.21-5.38-4.47-10.9-9-15.71-14.14-.76,3.07-1.41,6.53-1.91,10.44-4.9,38.21,26.45,87.2,26.45,87.2,47.03,9.31,71.03-14.21,71.03-14.21l5.88-29.88c5.38-1.52,9.32-4.58,12.16-8.57-22.36,1.5-47.01.75-67.19-9.63Z"/>
          </g>
        </g>
      </g>
      <g>
        <path class="cls-9" d="M188.71,106.91s28.41-5.88,30.86,18.61c2.45,24.49-24,24.98-23.02,50.46.98,25.47,9.8,55.84-9.8,66.62-19.59,10.78-38.21-14.7-46.05,33.8,0,0-17.15-27.43-3.43-45.56,13.72-18.13,20.57-39.19,20.08-76.91-.49-37.72,21.55-43.6,31.35-47.03Z"/>
        <g>
          <g>
            <path class="cls-5" d="M187.73,180.28s13.72,16.77,31.84,17.75"/>
            <path class="cls-15" d="M226.48,199.04c-.3,1.75-1.97,2.93-3.72,2.63l-7.54-1.3c-1.75-.3-2.93-1.97-2.63-3.72h0c.3-1.75,1.97-2.93,3.72-2.63l7.54,1.3c1.75.3,2.93,1.97,2.63,3.72h0Z"/>
          </g>
          <g>
            <g>
              <ellipse class="cls-14" cx="183.08" cy="167.41" rx="20.33" ry="22.29"/>
              <ellipse class="cls-13" cx="176.71" cy="167.41" rx="20.33" ry="22.29"/>
            </g>
            <g>
              <ellipse class="cls-14" cx="176.67" cy="167.66" rx="10.98" ry="12.04"/>
              <path class="cls-14" d="M173.53,167.17s-.98-41.15,21.06-55.84c24.76-16.51,45.07-.98,45.07-.98,0,0-26.94-5.39-42.13,10.78-15.19,16.17-17.15,42.62-17.15,42.62l-6.86,3.43Z"/>
            </g>
          </g>
        </g>
      </g>
      <g>
        <g>
          <path class="cls-1" d="M185.77,289.14s-2.45,54.38-3.43,67.11c0,0,66.62-12.74,75.44-7.84,8.82,4.9,32.33,49.48,8.82,19.1,0,0,20.57,37.23-5.39,1.96,0,0,12.74,31.84-5.88,0,0,0,12.25,27.43-6.86-2.45,0,0-79.85,33.31-91.61,25.96s-20.08-63.68-14.21-110.22c5.88-46.54,43.11,6.37,43.11,6.37Z"/>
          <path class="cls-2" d="M169.29,311.76c5.31.09,10.46-.49,15.51-1.51.56-11.81.98-21.11.98-21.11,0,0-37.23-52.91-43.11-6.37-.95,7.55-1.53,15.36-1.78,23.17,9.13,3.25,18.47,5.64,28.4,5.81Z"/>
        </g>
        <path class="cls-13" d="M137.77,300.9s-2.94-58.78,26.45-55.84c29.39,2.94,23.02,58.29,23.02,58.29,0,0-26.94,6.86-49.48-2.45Z"/>
      </g>
    </g>
    <g>
      <path class="cls-15" d="M549.26,414.06c0,3.25-2.19,5.88-4.9,5.88H16.28c-2.71,0-4.9-2.63-4.9-5.88v-11.76c0-3.25,2.19-5.88,4.9-5.88h528.08c2.71,0,4.9,2.63,4.9,5.88v11.76Z"/>
      <g>
        <g>
          <rect class="cls-17" x="307.31" y="201.46" width="190.07" height="149.9" rx="4.9" ry="4.9"/>
          <rect class="cls-9" x="321.02" y="201.46" width="190.07" height="149.9" rx="4.9" ry="4.9"/>
          <rect class="cls-17" x="395.24" y="280.82" width="35.27" height="114.63" rx="4.9" ry="4.9"/>
          <rect class="cls-17" x="353.6" y="385.65" width="118.55" height="10.78" rx="4.9" ry="4.9"/>
          <rect class="cls-17" x="395.24" y="280.82" width="35.27" height="114.63" rx="4.9" ry="4.9"/>
        </g>
        <rect class="cls-17" x="215.41" y="385.65" width="118.55" height="10.78" rx="4.9" ry="4.9"/>
      </g>
    </g>
  </g>
  <g>
    <g>
      <path class="cls-18" d="M376.05,17.09h-110.05c-6.04,0-10.94,5.28-10.94,11.8v45.95c0,6.52,4.9,11.8,10.94,11.8h15.18l-3.02,52.62,19.13-52.62h78.76c6.04,0,10.94-5.28,10.94-11.8V28.89c0-6.52-4.9-11.8-10.94-11.8Z"/>
      <g class="cls-12">
        <ellipse class="cls-7" cx="287.71" cy="50.72" rx="7.18" ry="7.75"/>
        <ellipse class="cls-7" cx="321.02" cy="50.72" rx="7.18" ry="7.75"/>
        <ellipse class="cls-7" cx="354.33" cy="50.72" rx="7.18" ry="7.75"/>
      </g>
    </g>
    <g>
      <path class="cls-15" d="M148.46,65.39l-5.93,4.61c3.5,4.52,7.77,8.25,12.69,11.09l3.75-6.52c4.12,2.37,8.63,3.88,13.27,4.48l-.97,7.45c5.69.74,11.37.37,16.9-1.11l-1.95-7.26c4.45-1.19,8.74-3.27,12.62-6.26l4.62,5.92c4.51-3.49,8.24-7.75,11.07-12.66l-6.51-3.75c2.37-4.12,3.89-8.63,4.5-13.26l7.45.98c.75-5.69.38-11.37-1.1-16.9l-7.26,1.94c-1.18-4.43-3.24-8.71-6.21-12.58l5.95-4.6-.08-.1c-3.52-4.55-7.81-8.29-12.77-11.13l-3.73,6.52c-4.12-2.36-8.64-3.86-13.28-4.46l.96-7.45c-5.69-.73-11.38-.35-16.9,1.15l1.96,7.25c-4.43,1.2-8.71,3.27-12.57,6.25l-4.6-5.94c-4.54,3.51-8.27,7.79-11.11,12.73l6.52,3.74c-2.36,4.12-3.87,8.64-4.47,13.28l-7.45-.97c-.74,5.69-.36,11.38,1.13,16.9l7.26-1.95c1.2,4.44,3.27,8.73,6.25,12.59ZM190.38,33.02c5.74,7.43,4.37,18.15-3.06,23.9-7.43,5.74-18.15,4.37-23.9-3.06-5.74-7.43-4.37-18.15,3.06-23.9,7.43-5.74,18.15-4.37,23.9,3.06Z"/>
      <path class="cls-11" d="M102.3,95.22l-2.64,4.8c3.65,2.02,7.59,3.28,11.7,3.76l.63-5.45c3.44.4,6.9.1,10.18-.83l1.5,5.27c4.02-1.15,7.72-3.04,10.99-5.63l-3.4-4.3c2.64-2.09,4.91-4.71,6.64-7.84l4.8,2.63c2.01-3.64,3.28-7.57,3.75-11.67l-5.45-.63c.4-3.44.11-6.9-.82-10.18l5.27-1.5c-1.14-4.03-3.03-7.73-5.62-11l-4.3,3.4c-2.07-2.63-4.69-4.9-7.79-6.63l2.65-4.8-.08-.05c-3.67-2.03-7.63-3.3-11.77-3.76l-.62,5.45c-3.44-.39-6.9-.09-10.18.85l-1.51-5.27c-4.02,1.15-7.72,3.06-10.98,5.65l3.41,4.29c-2.62,2.08-4.89,4.7-6.61,7.82l-4.8-2.65c-2.02,3.66-3.29,7.61-3.76,11.74l5.45.62c-.39,3.44-.09,6.9.84,10.18l-5.27,1.51c1.15,4.02,3.05,7.72,5.64,10.99l4.29-3.41c2.08,2.63,4.71,4.9,7.83,6.63ZM121.02,61.43c5.99,3.32,8.17,10.89,4.86,16.89-3.32,5.99-10.89,8.17-16.89,4.86-5.99-3.32-8.17-10.89-4.86-16.89,3.32-5.99,10.89-8.17,16.89-4.86Z"/>
    </g>
    <g>
      <circle class="cls-15" cx="45.89" cy="139.36" r="45.89"/>
      <g class="cls-3">
        <path class="cls-7" d="M48.68,138.29c.6-.31,1.27-.47,1.97-.47,1.15,0,2.24.45,3.05,1.26l1.76-1.76c4.35,1.53,9.39.55,12.87-2.93,2.93-2.93,4.08-6.96,3.47-10.75-.07-.42-.36-.76-.77-.89-.4-.13-.85-.02-1.14.27l-2.61,2.61c-2.13,2.13-5.58,2.13-7.7,0-2.13-2.13-2.13-5.58,0-7.7l2.61-2.61c.3-.3.41-.74.28-1.15-.13-.4-.47-.7-.89-.77-3.8-.62-7.83.54-10.75,3.47-3.53,3.53-4.48,8.66-2.86,13.06l-3.81,3.81,4.54,4.54Z"/>
        <path class="cls-7" d="M41.72,145.2l-4.52-4.52-15.82,15.82c-2.06,2.06-2.06,5.39,0,7.45,2.06,2.06,5.39,2.06,7.45,0l13.64-13.64c-1.38-1.38-1.62-3.47-.74-5.11Z"/>
        <path class="cls-7" d="M51.82,140.97c-.32-.32-.75-.49-1.17-.49s-.85.16-1.17.49l-.94.94-16.83-16.82.79-.79c.72-.72.63-1.9-.19-2.51l-6.86-5.06c-.66-.49-1.57-.42-2.15.16l-2.91,2.91c-.58.58-.65,1.49-.16,2.15l5.06,6.86c.6.82,1.79.91,2.51.19l.79-.79,16.82,16.82-1.01,1.01c-.65.65-.65,1.7,0,2.34l15.52,15.52c2.06,2.06,5.39,2.06,7.45,0,2.06-2.06,2.06-5.39,0-7.45l-15.52-15.52Z"/>
      </g>
    </g>
    <g>
      <circle class="cls-13" cx="441.72" cy="93.24" r="38.22"/>
      <g class="cls-20">
        <path class="cls-7" d="M466.28,78.18l-15.16,15.07,15.16,15.07c.27-.57.44-1.21.44-1.88v-26.37c0-.68-.17-1.31-.44-1.88Z"/>
        <path class="cls-7" d="M444.83,95.39l19.38-19.28c-.57-.27-1.21-.44-1.88-.44h-41.21c-.68,0-1.31.17-1.88.44l19.38,19.28c1.71,1.71,4.5,1.71,6.21,0Z"/>
        <path class="cls-7" d="M417.16,78.18c-.27.57-.44,1.21-.44,1.88v26.37c0,.68.17,1.31.44,1.88l15.16-15.07-15.16-15.07Z"/>
        <path class="cls-7" d="M446.9,97.46c-2.86,2.86-7.5,2.86-10.36,0l-2.15-2.15-15.16,15.07c.57.27,1.21.44,1.88.44h41.21c.68,0,1.31-.17,1.88-.44l-15.16-15.07-2.15,2.15Z"/>
      </g>
    </g>
    <g>
      <circle class="cls-15" cx="534.93" cy="137.48" r="37.56"/>
      <g class="cls-10">
        <path class="cls-7" d="M537.06,145.11l-8.86-.71v-10.83c.25.15.82.3,1.7.47.87.16,1.64.25,2.3.25,1.5,0,2.78-.39,3.86-1.18,1.07-.78,1.61-1.81,1.61-3.09,0-1.2-.39-2.22-1.18-3.04-.78-.82-1.9-1.23-3.36-1.23s-2.52.43-3.28,1.28c-.77.86-1.28,1.91-1.53,3.15l-6.73-2.73c.18-2.08.89-3.98,2.13-5.71,1.24-1.73,2.84-3.11,4.81-4.13,1.97-1.02,4.08-1.53,6.34-1.53,2.59,0,4.9.67,6.94,2.02,2.04,1.35,3.63,3.12,4.76,5.3,1.13,2.19,1.69,4.48,1.69,6.89,0,2.62-.66,4.85-1.97,6.67-1.31,1.82-2.86,3.16-4.65,4.02-1.79.86-3.36,1.27-4.7,1.23l.11,2.9ZM528.53,157.12c-1.09-1.18-1.64-2.58-1.64-4.18s.59-3.03,1.78-4.16c1.18-1.13,2.56-1.7,4.13-1.7,1.46,0,2.71.51,3.75,1.53,1.04,1.02,1.56,2.39,1.56,4.1s-.52,3.17-1.56,4.37c-1.04,1.2-2.36,1.8-3.97,1.8s-2.95-.59-4.05-1.78Z"/>
      </g>
    </g>
  </g>
</svg>