<?xml version="1.0" encoding="UTF-8"?>
<svg xmlns="http://www.w3.org/2000/svg" version="1.1" viewBox="0 0 50 50">
  <defs>
    <style>
      .cls-1 {
        fill: #fff;
      }
    </style>
  </defs>
  <!-- Generator: Adobe Illustrator 28.6.0, SVG Export Plug-In . SVG Version: 1.2.0 Build 709)  -->
  <g>
    <g id="Layer_1">
      <path class="cls-1" d="M25,12.2c-7.1,0-12.8,5.7-12.8,12.8s5.7,12.8,12.8,12.8,12.8-5.7,12.8-12.8-5.7-12.8-12.8-12.8ZM25,33.3c-4.6,0-8.3-3.7-8.3-8.3s3.7-8.3,8.3-8.3,8.3,3.7,8.3,8.3-3.7,8.3-8.3,8.3h0ZM41.3,11.7c0,1.7-1.3,3-3,3s-3-1.3-3-3,1.3-3,3-3,3,1.3,3,3ZM49.8,14.7c-.2-4-1.1-7.6-4-10.5-2.9-2.9-6.5-3.8-10.5-4C31.2,0,18.8,0,14.7.2c-4,.2-7.5,1.1-10.5,4S.4,10.7.2,14.7C0,18.8,0,31.2.2,35.3c.2,4,1.1,7.6,4,10.5,2.9,2.9,6.5,3.8,10.5,4,4.1.2,16.5.2,20.6,0,4-.2,7.6-1.1,10.5-4,2.9-2.9,3.8-6.5,4-10.5.2-4.1.2-16.5,0-20.6h0ZM44.5,39.7c-.9,2.2-2.6,3.9-4.8,4.8-3.3,1.3-11.1,1-14.7,1s-11.5.3-14.7-1c-2.2-.9-3.9-2.6-4.8-4.8-1.3-3.3-1-11.1-1-14.7s-.3-11.5,1-14.7c.9-2.2,2.6-3.9,4.8-4.8,3.3-1.3,11.1-1,14.7-1s11.5-.3,14.7,1c2.2.9,3.9,2.6,4.8,4.8,1.3,3.3,1,11.1,1,14.7s.3,11.5-1,14.7Z"/>
    </g>
  </g>
</svg>