<?xml version="1.0" encoding="UTF-8"?>
<svg id="OBJECTS" xmlns="http://www.w3.org/2000/svg" width="749.96" height="500" xmlns:xlink="http://www.w3.org/1999/xlink" viewBox="0 0 749.96 500">
  <defs>
    <style>
      .cls-1 {
        fill: #ffb199;
      }

      .cls-2 {
        fill: #e2887d;
      }

      .cls-3 {
        filter: url(#drop-shadow-2);
      }

      .cls-4 {
        stroke-width: 1.77px;
      }

      .cls-4, .cls-5, .cls-6 {
        fill: none;
        stroke-miterlimit: 10;
      }

      .cls-4, .cls-6 {
        stroke: #ff5640;
      }

      .cls-7 {
        filter: url(#drop-shadow-5);
      }

      .cls-8 {
        fill: #fff;
      }

      .cls-9 {
        fill: #ff8255;
      }

      .cls-10 {
        fill: #001433;
      }

      .cls-11 {
        fill: #faeee8;
      }

      .cls-12 {
        filter: url(#drop-shadow-4);
      }

      .cls-13 {
        fill: #f66;
      }

      .cls-14 {
        filter: url(#drop-shadow-1);
      }

      .cls-15 {
        fill: #ffa94d;
      }

      .cls-16 {
        fill: #dd8d45;
      }

      .cls-17 {
        fill: #22689e;
      }

      .cls-18 {
        fill: #b2382b;
      }

      .cls-19 {
        fill: #003154;
      }

      .cls-20 {
        fill: #ff5640;
      }

      .cls-21 {
        fill: #ff553c;
      }

      .cls-22 {
        filter: url(#drop-shadow-3);
      }

      .cls-5 {
        stroke: #001433;
        stroke-width: .98px;
      }

      .cls-6 {
        stroke-width: 1.96px;
      }

      .cls-23 {
        fill: #000a19;
      }
    </style>
    <filter id="drop-shadow-1" filterUnits="userSpaceOnUse">
      <feOffset dx="1.96" dy="1.96"/>
      <feGaussianBlur result="blur" stdDeviation="0"/>
      <feFlood flood-color="#000" flood-opacity=".25"/>
      <feComposite in2="blur" operator="in"/>
      <feComposite in="SourceGraphic"/>
    </filter>
    <filter id="drop-shadow-2" filterUnits="userSpaceOnUse">
      <feOffset dx="1.96" dy="1.96"/>
      <feGaussianBlur result="blur-2" stdDeviation="0"/>
      <feFlood flood-color="#000" flood-opacity=".25"/>
      <feComposite in2="blur-2" operator="in"/>
      <feComposite in="SourceGraphic"/>
    </filter>
    <filter id="drop-shadow-3" filterUnits="userSpaceOnUse">
      <feOffset dx="1.96" dy="1.96"/>
      <feGaussianBlur result="blur-3" stdDeviation="0"/>
      <feFlood flood-color="#000" flood-opacity=".25"/>
      <feComposite in2="blur-3" operator="in"/>
      <feComposite in="SourceGraphic"/>
    </filter>
    <filter id="drop-shadow-4" filterUnits="userSpaceOnUse">
      <feOffset dx="1.96" dy="1.96"/>
      <feGaussianBlur result="blur-4" stdDeviation="0"/>
      <feFlood flood-color="#000" flood-opacity=".25"/>
      <feComposite in2="blur-4" operator="in"/>
      <feComposite in="SourceGraphic"/>
    </filter>
    <filter id="drop-shadow-5" filterUnits="userSpaceOnUse">
      <feOffset dx="1.96" dy="1.96"/>
      <feGaussianBlur result="blur-5" stdDeviation="0"/>
      <feFlood flood-color="#000" flood-opacity=".25"/>
      <feComposite in2="blur-5" operator="in"/>
      <feComposite in="SourceGraphic"/>
    </filter>
  </defs>
  <path class="cls-11" d="M193.79,485.36S-2.27,502.25.02,299.6C2.31,96.95,239.77,182.86,324.51,93.57c141.03-148.61,323.21-116.1,393.23,68.43,72.29,190.52-177.67,367.27-523.94,323.37Z"/>
  <g>
    <g>
      <g>
        <g>
          <g>
            <path class="cls-13" d="M123.43,385.16s-16.43-96.45-51.98-78.81c-35.54,17.64,37.46,70.55,51.98,78.81Z"/>
            <path class="cls-13" d="M143.69,389.29s-44.72-51.41-16.43-63.42c28.28-12.01,16.43,63.42,16.43,63.42Z"/>
            <path class="cls-13" d="M155.53,422.71s-40.38-42.94-55.22-22.75c-14.84,20.19,55.22,22.75,55.22,22.75Z"/>
          </g>
          <g>
            <path class="cls-6" d="M77.95,320.99s60.77,113.71,147.91,128.35"/>
            <path class="cls-6" d="M132.22,343.51s10.32,18.76,13.38,63.05"/>
            <path class="cls-4" d="M115.61,406.6s15.57,10.99,55.3,20.3"/>
          </g>
        </g>
        <g>
          <path class="cls-6" d="M89.4,412.47s31.34,66.2,115.31,35.07"/>
          <g>
            <path class="cls-20" d="M98.38,427.37s8.43-11.8-14.58-24.29c0,0-7.52,20.02,14.58,24.29Z"/>
            <g>
              <path class="cls-20" d="M112.14,438.93s-10.47-8-1.63-19.45c0,0,10.16,9.15,1.63,19.45Z"/>
              <path class="cls-20" d="M110.69,439.73s-9.81,10.2-21.41-.28c0,0,11.03-9.75,21.41.28Z"/>
            </g>
            <g>
              <path class="cls-20" d="M132.14,449.97s-11.43-6.61-4.17-19.08c0,0,11.28,7.78,4.17,19.08Z"/>
              <path class="cls-20" d="M130.81,450.95s-8.39,11.36-21.26,2.43c0,0,9.66-11.07,21.26-2.43Z"/>
            </g>
            <g>
              <path class="cls-20" d="M154.83,454.56s-13.05-2.34-10.61-16.51c0,0,13.32,3.5,10.61,16.51Z"/>
              <path class="cls-20" d="M153.93,455.93s-3.9,13.5-19.11,9.47c0,0,5.19-13.66,19.11-9.47Z"/>
            </g>
            <g>
              <path class="cls-20" d="M180.2,454.04s-13.22,1.12-14.66-13.18c0,0,13.79-.07,14.66,13.18Z"/>
              <path class="cls-20" d="M179.69,455.6s-.14,14.03-15.9,14.08c0,0,1.34-14.52,15.9-14.08Z"/>
            </g>
          </g>
        </g>
        <g>
          <path class="cls-6" d="M151.33,259.07s-23.98,69.1,58.6,103.63"/>
          <g>
            <path class="cls-20" d="M147.32,275.93s14.4-2.8,6.58-27.45c0,0-19.53,9.35-6.58,27.45Z"/>
            <g>
              <path class="cls-20" d="M149.13,293.62s-1.93-12.89,12.52-15.16c0,0,.9,13.51-12.52,15.16Z"/>
              <path class="cls-20" d="M147.51,293.22s-14.27.7-15.26-14.74c0,0,14.84.44,15.26,14.74Z"/>
            </g>
            <g>
              <path class="cls-20" d="M155.8,315.18s-3.61-12.54,10.42-16.62c0,0,2.67,13.28-10.42,16.62Z"/>
              <path class="cls-20" d="M154.15,314.98s-14.06,2.51-17.07-12.68c0,0,14.77-1.44,17.07,12.68Z"/>
            </g>
            <g>
              <path class="cls-20" d="M168.95,333.9s-7.78-10.55,3.96-19.13c0,0,7.16,11.57-3.96,19.13Z"/>
              <path class="cls-20" d="M167.33,334.28s-12.32,7.11-20.47-6.14c0,0,13.37-6.35,20.47,6.14Z"/>
            </g>
            <g>
              <path class="cls-20" d="M187.65,350.75s-10.34-8.17-1.31-19.48c0,0,10.01,9.31,1.31,19.48Z"/>
              <path class="cls-20" d="M186.18,351.53s-9.98,10.04-21.4-.63c0,0,11.19-9.58,21.4.63Z"/>
            </g>
          </g>
        </g>
        <g>
          <path class="cls-6" d="M162.2,371.04s14.31,71.64,103.42,61.13"/>
          <g>
            <path class="cls-20" d="M167.29,387.61s11.06-9.48-8.24-27.01c0,0-12.18,17.67,8.24,27.01Z"/>
            <g>
              <path class="cls-20" d="M177.84,402.07s-8.22-10.23,3.15-19.27c0,0,7.64,11.27-3.15,19.27Z"/>
              <path class="cls-20" d="M176.24,402.51s-12.01,7.6-20.72-5.3c0,0,13.09-6.88,20.72,5.3Z"/>
            </g>
            <g>
              <path class="cls-20" d="M194.57,417.48s-9.49-9.1.59-19.51c0,0,9.06,10.21-.59,19.51Z"/>
              <path class="cls-20" d="M193.04,418.12s-10.91,9.06-21.24-2.63c0,0,12.07-8.48,21.24,2.63Z"/>
            </g>
            <g>
              <path class="cls-20" d="M215.48,427.27s-12.1-5.33-6.28-18.52c0,0,12.08,6.52,6.28,18.52Z"/>
              <path class="cls-20" d="M214.27,428.39s-7.07,12.19-20.86,4.71c0,0,8.36-12.05,20.86-4.71Z"/>
            </g>
            <g>
              <path class="cls-20" d="M240.24,432.72s-13.11-2.02-11.02-16.24c0,0,13.4,3.17,11.02,16.24Z"/>
              <path class="cls-20" d="M239.37,434.11s-3.55,13.59-18.87,9.93c0,0,4.84-13.78,18.87-9.93Z"/>
            </g>
          </g>
        </g>
        <g>
          <path class="cls-6" d="M381.61,330.62s20.13,70.28-64.24,100.35"/>
          <g>
            <path class="cls-20" d="M384.68,347.67s-14.23-3.56-5.05-27.76c0,0,18.99,10.38,5.05,27.76Z"/>
            <g>
              <path class="cls-20" d="M381.9,365.24s2.64-12.77-11.67-15.8c0,0-1.64,13.44,11.67,15.8Z"/>
              <path class="cls-20" d="M383.53,364.93s14.21,1.46,16.05-13.9c0,0-14.84-.35-16.05,13.9Z"/>
            </g>
            <g>
              <path class="cls-20" d="M374.05,386.41s4.29-12.33-9.49-17.15c0,0-3.4,13.12,9.49,17.15Z"/>
              <path class="cls-20" d="M375.71,386.3s13.9,3.25,17.75-11.75c0,0-14.67-2.22-17.75,11.75Z"/>
            </g>
            <g>
              <path class="cls-20" d="M359.88,404.41s8.35-10.12-2.9-19.31c0,0-7.79,11.17,2.9,19.31Z"/>
              <path class="cls-20" d="M361.47,404.87s11.91,7.75,20.78-5.04c0,0-13-7.05-20.78,5.04Z"/>
            </g>
            <g>
              <path class="cls-20" d="M340.28,420.24s10.77-7.61,2.38-19.38c0,0-10.51,8.76-2.38,19.38Z"/>
              <path class="cls-20" d="M341.7,421.09s9.41,10.56,21.4.51c0,0-10.65-10.16-21.4-.51Z"/>
            </g>
          </g>
        </g>
      </g>
      <path class="cls-10" d="M257.02,478.42c.93,6.15-3.39,11.88-9.65,12.8l-32.89,4.82c-6.26.92-12.1-3.32-13.03-9.47l-17.08-112.47c-.93-6.15,3.39-11.88,9.65-12.8l32.89-4.82c6.26-.92,12.1,3.32,13.03,9.47l17.08,112.47Z"/>
    </g>
    <g>
      <g>
        <g>
          <path class="cls-23" d="M280.9,150.09s43.37-26.6,68.62,12.72c25.25,39.32,34.59,139.92-3.84,146.86-38.43,6.94-65.33,1.73-60.39-55.5,4.94-57.24-4.39-104.07-4.39-104.07Z"/>
          <g>
            <g>
              <path class="cls-1" d="M304.4,259.63s-9.75,27.02,7.45,31.52c17.2,4.5,35.54-5.63,37.26,30.96,1.72,36.59-123.83,3.38-122.11-12.38,1.72-15.76,41.28-3.94,43-38.84s2.29-36.59,2.29-36.59l32.1,25.33Z"/>
              <path class="cls-2" d="M301.82,278.25c-.96-8.79,2.58-18.62,2.58-18.62l-32.1-25.33s0,5.2-.41,17.45c5.36,12.52,16.62,21.72,29.94,26.51Z"/>
            </g>
            <path class="cls-1" d="M292.94,163.92s54.46-15.59,54.46,51.22-65.93,60.13-81.41,9.46c-16.15-52.85,26.94-60.69,26.94-60.69Z"/>
          </g>
        </g>
        <g>
          <g>
            <path class="cls-23" d="M287.78,199.12c4.96-13,20.05-12.39,28.09-2.53-2.53-1.17-4.94-2.36-7.42-3.17-7.92-2.98-15.09-.47-20.67,5.7h0Z"/>
            <path class="cls-23" d="M325.04,197.15c1.72-11.21,13.62-13.23,18.92-3.1-8.75-5.51-12.4-5.03-18.92,3.1h0Z"/>
            <path class="cls-23" d="M328.48,204.46c2.01,3.74,6.31,13.43,10.11,5.54.87-1.72,1.54-3.61,2.22-5.54.12,2.06-.13,4.13-.81,6.14-1.21,4.07-5.04,6.11-8.2,2.57-2.03-2.48-3.01-5.6-3.32-8.71h0Z"/>
            <path class="cls-23" d="M296.95,204.46c2.01,3.74,6.31,13.43,10.11,5.54.87-1.72,1.54-3.61,2.22-5.54.12,2.06-.13,4.13-.81,6.14-1.21,4.07-5.04,6.11-8.2,2.57-2.03-2.48-3.01-5.6-3.32-8.71h0Z"/>
            <path class="cls-9" d="M322.46,203.9c.98,6.32,2.99,12.87,8.18,16.91.93.62,2.45,1.73,3.37,2.38-3.35,1.84-6.78,3.65-10.4,4.92,2.26-2.27,4.78-4.25,7.35-6.14,0,0,.08,2.19.08,2.19-1.78-.92-3.56-2.01-4.89-3.59-4.03-4.41-5.31-11.01-3.69-16.67h0Z"/>
          </g>
          <g>
            <path class="cls-21" d="M304.4,235.43l29.24.56s-9.46,19.42-29.24-.56Z"/>
            <path class="cls-18" d="M304.4,235.43c.69.69,1.36,1.33,2.02,1.93,5.71-.75,11.38-.18,15.46,4.26.7.76,1.4,1.59,2.05,2.48,6.52-1.6,9.7-8.11,9.7-8.11l-29.24-.56Z"/>
          </g>
        </g>
      </g>
      <g>
        <g>
          <path class="cls-2" d="M356,344.07s-1.15,66.43,1.72,66.43,71.66,18.01,74.53,29.84c2.87,11.82,5.16,35.46-5.16,3.94,0,0,8.6,43.91-7.45-.56,0,0-6.31,42.22-6.31-.56,0,0-5.73,38.28-6.31.56,0,0-73.38-1.13-94.02-17.45-20.64-16.32,14.33-91.19,14.33-91.19l28.66,9.01Z"/>
          <g>
            <path class="cls-15" d="M333.64,350.26s16.05,1.69,26.37-2.25c0,0-.49-50.11-25.23-54.04-23.45-3.73-1.15,56.29-1.15,56.29Z"/>
            <path class="cls-16" d="M330.12,339.63c1.9,6.28,3.52,10.63,3.52,10.63,0,0,16.05,1.69,26.37-2.25,0,0-.16-15.59-4.58-30.05-6.77,8.56-15.58,15.74-25.31,21.68Z"/>
          </g>
        </g>
        <g>
          <path class="cls-16" d="M243.43,432.45s-31.28,19.14-32.48,48.41h146.76s-1.2-30.4-31.28-50.66c-30.07-20.27-83.01,2.25-83.01,2.25Z"/>
          <g>
            <path class="cls-15" d="M241.91,432.45s-36.69-56.29-30.96-100.2c5.73-43.91,27.52-38.84,36.69-38.84,0,0,13.76,29.27,43,25.33,31.57-4.25,34.4-26.46,34.4-26.46,0,0,18.35-2.81,23.51,14.64,5.16,17.45,13.76,66.43-16.63,74.87l-6.88,34.34s-28.09,27.02-83.13,16.32Z"/>
            <path class="cls-16" d="M267.51,360.86c-12.99-6.57-24.73-15.22-35.94-24.37-6.29-5.14-12.75-10.34-18.39-16.24-.89,3.53-1.65,7.5-2.24,12-5.73,43.91,30.96,100.2,30.96,100.2,55.04,10.7,83.13-16.32,83.13-16.32l6.88-34.34c6.3-1.75,10.9-5.26,14.23-9.85-26.17,1.73-55.01.87-78.63-11.07Z"/>
          </g>
        </g>
      </g>
      <g>
        <path class="cls-10" d="M267.14,140.29s33.25-6.76,36.12,21.39c2.87,28.15-28.09,28.71-26.94,57.98,1.15,29.27,11.47,64.17-11.47,76.56-22.93,12.38-44.72-16.89-53.89,38.84,0,0-20.07-31.52-4.01-52.35,16.05-20.83,24.08-45.03,23.51-88.38-.57-43.35,25.23-50.1,36.69-54.04Z"/>
        <g>
          <g>
            <path class="cls-5" d="M265.99,224.6s16.05,19.27,37.26,20.39"/>
            <path class="cls-17" d="M311.34,246.16c-.35,2.02-2.3,3.37-4.36,3.02l-8.83-1.49c-2.05-.35-3.43-2.26-3.08-4.28h0c.35-2.02,2.3-3.37,4.36-3.02l8.83,1.49c2.05.35,3.43,2.26,3.08,4.28h0Z"/>
          </g>
          <g>
            <g>
              <ellipse class="cls-16" cx="260.54" cy="209.81" rx="23.79" ry="25.61"/>
              <ellipse class="cls-15" cx="253.09" cy="209.81" rx="23.79" ry="25.61"/>
            </g>
            <g>
              <ellipse class="cls-16" cx="253.04" cy="210.09" rx="12.85" ry="13.83"/>
              <path class="cls-16" d="M249.36,209.53s-1.15-47.29,24.65-64.17c28.98-18.97,52.74-1.13,52.74-1.13,0,0-31.53-6.19-49.3,12.38s-20.07,48.97-20.07,48.97l-8.03,3.94Z"/>
            </g>
          </g>
        </g>
      </g>
      <g>
        <g>
          <path class="cls-1" d="M263.7,349.7s-2.87,62.48-4.01,77.12c0,0,77.97-14.64,88.29-9.01,10.32,5.63,37.84,56.86,10.32,21.95,0,0,24.08,42.78-6.31,2.25,0,0,14.91,36.59-6.88,0,0,0,14.33,31.52-8.03-2.81,0,0-93.45,38.28-107.21,29.84s-23.51-73.18-16.63-126.66c6.88-53.48,50.45,7.32,50.45,7.32Z"/>
          <path class="cls-2" d="M244.4,375.69c6.22.11,12.24-.56,18.15-1.73.66-13.57,1.15-24.26,1.15-24.26,0,0-43.57-60.8-50.45-7.32-1.12,8.67-1.79,17.65-2.09,26.62,10.68,3.74,21.62,6.48,33.24,6.68Z"/>
        </g>
        <path class="cls-15" d="M207.51,363.21s-3.44-67.55,30.96-64.17c34.4,3.38,26.95,66.99,26.95,66.99,0,0-31.53,7.88-57.9-2.81Z"/>
      </g>
    </g>
    <g>
      <path class="cls-17" d="M689.08,493.24c0,3.73-2.57,6.76-5.73,6.76H65.34c-3.17,0-5.73-3.02-5.73-6.76v-13.51c0-3.73,2.57-6.76,5.73-6.76h618.02c3.17,0,5.73,3.02,5.73,6.76v13.51Z"/>
      <g>
        <g>
          <path class="cls-19" d="M628.37,415.56c0,3.11-2.57,5.63-5.73,5.63h-210.97c-3.17,0-5.73-2.52-5.73-5.63v-161c0-3.11,2.57-5.63,5.73-5.63h210.97c3.17,0,5.73,2.52,5.73,5.63v161Z"/>
          <path class="cls-10" d="M644.42,415.56c0,3.11-2.57,5.63-5.73,5.63h-210.97c-3.17,0-5.73-2.52-5.73-5.63v-161c0-3.11,2.57-5.63,5.73-5.63h210.97c3.17,0,5.73,2.52,5.73,5.63v161Z"/>
          <path class="cls-19" d="M550.11,466.22c0,3.11-2.57,5.63-5.73,5.63h-29.81c-3.17,0-5.73-2.52-5.73-5.63v-120.47c0-3.11,2.57-5.63,5.73-5.63h29.81c3.17,0,5.73,2.52,5.73,5.63v120.47Z"/>
          <path class="cls-19" d="M598.84,467.35c0,3.11-2.57,5.63-5.73,5.63h-127.27c-3.17,0-5.73-2.52-5.73-5.63v-1.13c0-3.11,2.57-5.63,5.73-5.63h127.27c3.17,0,5.73,2.52,5.73,5.63v1.13Z"/>
          <path class="cls-19" d="M550.11,466.22c0,3.11-2.57,5.63-5.73,5.63h-29.81c-3.17,0-5.73-2.52-5.73-5.63v-120.47c0-3.11,2.57-5.63,5.73-5.63h29.81c3.17,0,5.73,2.52,5.73,5.63v120.47Z"/>
        </g>
        <path class="cls-19" d="M437.12,467.35c0,3.11-2.57,5.63-5.73,5.63h-127.27c-3.17,0-5.73-2.52-5.73-5.63v-1.13c0-3.11,2.57-5.63,5.73-5.63h127.27c3.17,0,5.73,2.52,5.73,5.63v1.13Z"/>
      </g>
    </g>
  </g>
  <g>
    <g>
      <path class="cls-20" d="M491.57,80.07h-128.8c-7.07,0-12.81,5.63-12.81,12.57v48.97c0,6.94,5.73,12.57,12.81,12.57h17.77v33.02l18.86-33.02h92.17c7.07,0,12.81-5.63,12.81-12.57v-48.97c0-6.94-5.73-12.57-12.81-12.57Z"/>
      <g class="cls-14">
        <ellipse class="cls-8" cx="388.19" cy="115.91" rx="8.41" ry="8.26"/>
        <ellipse class="cls-8" cx="427.17" cy="115.91" rx="8.41" ry="8.26"/>
        <ellipse class="cls-8" cx="466.16" cy="115.91" rx="8.41" ry="8.26"/>
      </g>
    </g>
    <g>
      <path class="cls-17" d="M223.36,81.25l-6.94,5.3c4.09,5.2,9.09,9.48,14.85,12.74l4.39-7.49c4.82,2.72,10.11,4.46,15.53,5.15l-1.14,8.56c6.66.85,13.31.42,19.78-1.28l-2.28-8.34c5.21-1.37,10.23-3.75,14.77-7.19l5.41,6.81c5.28-4.01,9.64-8.9,12.95-14.54l-7.62-4.31c2.78-4.73,4.55-9.92,5.26-15.24l8.72,1.13c.88-6.54.44-13.07-1.28-19.42l-8.49,2.23c-1.39-5.1-3.8-10.01-7.27-14.45l6.96-5.28-.09-.12c-4.12-5.23-9.14-9.53-14.95-12.79l-4.37,7.5c-4.82-2.71-10.11-4.44-15.54-5.12l1.12-8.56c-6.66-.84-13.31-.4-19.77,1.32l2.3,8.34c-5.19,1.38-10.19,3.76-14.71,7.18l-5.39-6.82c-5.31,4.03-9.68,8.95-13,14.63l7.63,4.3c-2.77,4.73-4.53,9.93-5.23,15.26l-8.72-1.11c-.86,6.54-.42,13.07,1.32,19.42l8.49-2.25c1.4,5.1,3.82,10.03,7.32,14.47ZM272.41,44.05c6.72,8.54,5.12,20.86-3.58,27.46-8.7,6.6-21.24,5.02-27.97-3.52-6.72-8.54-5.12-20.86,3.58-27.46,8.7-6.6,21.24-5.02,27.97,3.52Z"/>
      <path class="cls-13" d="M169.34,115.52l-3.09,5.52c4.27,2.32,8.88,3.77,13.7,4.32l.73-6.26c4.03.46,8.08.12,11.92-.96l1.76,6.06c4.71-1.32,9.04-3.49,12.87-6.47l-3.98-4.94c3.08-2.4,5.75-5.42,7.77-9.01l5.62,3.02c2.36-4.18,3.83-8.7,4.39-13.41l-6.37-.73c.47-3.95.13-7.93-.96-11.7l6.17-1.72c-1.34-4.63-3.55-8.88-6.57-12.64l-5.03,3.9c-2.43-3.02-5.49-5.63-9.12-7.62l3.11-5.51-.1-.05c-4.29-2.33-8.93-3.79-13.77-4.33l-.72,6.26c-4.03-.45-8.08-.1-11.91.98l-1.77-6.05c-4.71,1.33-9.03,3.51-12.85,6.49l3.99,4.93c-3.07,2.39-5.72,5.41-7.73,8.98l-5.61-3.04c-2.37,4.2-3.85,8.74-4.4,13.49l6.37.71c-.46,3.96-.11,7.93.99,11.7l-6.17,1.73c1.35,4.62,3.57,8.87,6.6,12.63l5.03-3.91c2.44,3.02,5.51,5.63,9.16,7.61ZM191.24,76.69c7.02,3.81,9.57,12.52,5.68,19.41-3.88,6.89-12.75,9.39-19.76,5.58-7.02-3.81-9.57-12.52-5.68-19.41,3.88-6.89,12.75-9.39,19.76-5.58Z"/>
    </g>
    <g>
      <ellipse class="cls-17" cx="89.34" cy="190.16" rx="63.45" ry="62.3"/>
      <g class="cls-3">
        <path class="cls-8" d="M93.19,188.7c.83-.42,1.76-.64,2.72-.64,1.59,0,3.09.61,4.22,1.71l2.43-2.39c6.02,2.07,12.98.74,17.79-3.98,4.05-3.97,5.64-9.44,4.79-14.6-.09-.57-.5-1.04-1.06-1.21-.56-.18-1.17-.03-1.58.37l-3.61,3.55c-2.94,2.89-7.71,2.89-10.65,0-2.94-2.89-2.94-7.57,0-10.46l3.61-3.54c.41-.41.56-1.01.38-1.55-.18-.55-.66-.95-1.24-1.04-5.25-.84-10.82.73-14.87,4.7-4.88,4.79-6.2,11.76-3.95,17.73l-5.27,5.18,6.28,6.17Z"/>
        <path class="cls-8" d="M83.58,198.08l-6.26-6.14-21.87,21.48c-2.84,2.79-2.84,7.32,0,10.11,2.84,2.79,7.46,2.79,10.3,0l18.86-18.52c-1.9-1.88-2.24-4.71-1.03-6.93Z"/>
        <path class="cls-8" d="M97.53,192.34c-.45-.44-1.03-.66-1.62-.66s-1.17.22-1.62.66l-1.31,1.28-23.26-22.84,1.09-1.07c.99-.97.87-2.58-.26-3.4l-9.49-6.86c-.91-.66-2.18-.57-2.98.22l-4.03,3.96c-.8.79-.9,2.03-.23,2.92l6.99,9.32c.83,1.11,2.47,1.23,3.46.26l1.09-1.07,23.26,22.84-1.4,1.37c-.9.88-.9,2.3,0,3.18l21.46,21.07c2.84,2.79,7.46,2.79,10.3,0,2.84-2.79,2.84-7.32,0-10.11l-21.46-21.07Z"/>
      </g>
    </g>
    <g>
      <ellipse class="cls-15" cx="574.23" cy="171.93" rx="61.15" ry="60.05"/>
      <g class="cls-22">
        <path class="cls-8" d="M613.52,148.26l-24.26,23.67,24.26,23.67c.44-.9.7-1.9.7-2.96v-41.42c0-1.06-.27-2.06-.7-2.96Z"/>
        <path class="cls-8" d="M579.2,175.3l31.01-30.29c-.92-.43-1.93-.69-3.01-.69h-65.94c-1.08,0-2.1.26-3.01.69l31.01,30.29c2.74,2.69,7.2,2.69,9.94,0Z"/>
        <path class="cls-8" d="M534.93,148.26c-.44.9-.7,1.9-.7,2.96v41.42c0,1.06.27,2.06.7,2.96l24.26-23.67-24.26-23.67Z"/>
        <path class="cls-8" d="M582.51,178.55c-4.57,4.49-12,4.49-16.57,0l-3.43-3.37-24.26,23.67c.92.43,1.93.69,3.01.69h65.94c1.08,0,2.1-.26,3.01-.69l-24.26-23.67-3.43,3.37Z"/>
      </g>
    </g>
    <g>
      <ellipse class="cls-17" cx="625.05" cy="56.19" rx="43.95" ry="43.16"/>
      <g class="cls-12">
        <path class="cls-8" d="M627.55,64.96l-10.37-.82v-12.44c.3.17.96.35,1.98.53,1.02.19,1.92.28,2.69.28,1.75,0,3.25-.45,4.51-1.35,1.26-.9,1.89-2.08,1.89-3.55,0-1.38-.46-2.55-1.38-3.49-.92-.94-2.23-1.41-3.93-1.41s-2.95.49-3.84,1.48c-.9.99-1.49,2.19-1.79,3.62l-7.87-3.14c.21-2.39,1.05-4.58,2.5-6.57,1.45-1.99,3.33-3.57,5.63-4.75,2.3-1.17,4.78-1.76,7.42-1.76,3.03,0,5.74.77,8.13,2.32,2.39,1.55,4.24,3.58,5.57,6.1,1.32,2.51,1.98,5.15,1.98,7.92,0,3.01-.77,5.57-2.3,7.67-1.54,2.09-3.35,3.64-5.44,4.62-2.09.98-3.93,1.46-5.51,1.41l.13,3.33ZM617.56,78.75c-1.28-1.36-1.92-2.96-1.92-4.81s.69-3.48,2.08-4.78c1.39-1.3,3-1.95,4.83-1.95,1.71,0,3.17.59,4.39,1.76,1.22,1.17,1.82,2.74,1.82,4.71s-.61,3.64-1.82,5.03c-1.22,1.38-2.76,2.07-4.64,2.07s-3.46-.68-4.74-2.04Z"/>
      </g>
    </g>
    <g>
      <ellipse class="cls-20" cx="706.01" cy="149.66" rx="43.95" ry="43.16"/>
      <g class="cls-7">
        <path class="cls-8" d="M701.3,162c-3.11,0-5.63,2.48-5.63,5.53s2.52,5.53,5.63,5.53,5.63-2.48,5.63-5.53-2.52-5.53-5.63-5.53h0Z"/>
        <path class="cls-8" d="M717.74,162c-3.11,0-5.63,2.48-5.63,5.53s2.52,5.53,5.63,5.53,5.63-2.48,5.63-5.53-2.52-5.53-5.63-5.53h0Z"/>
        <path class="cls-8" d="M727.34,156.35h-29.38l-.57-3.27h24.14c.71,0,1.35-.42,1.61-1.07l5.75-14.22c.35-.87-.09-1.85-.97-2.2-.2-.08-.42-.12-.64-.12h-32.88l-1.38-7.79c-.14-.82-.87-1.42-1.72-1.41h-6.61c-.95,0-1.72.76-1.72,1.69s.77,1.69,1.72,1.69h5.17l4.94,28.68c.14.82.87,1.42,1.72,1.41h30.81c.95,0,1.72-.76,1.72-1.69s-.77-1.69-1.72-1.69Z"/>
      </g>
    </g>
  </g>
</svg>