<?xml version="1.0" encoding="UTF-8"?>
<svg xmlns="http://www.w3.org/2000/svg" version="1.1" viewBox="0 0 50 50">
  <!-- Generator: Adobe Illustrator 28.6.0, SVG Export Plug-In . SVG Version: 1.2.0 Build 709)  -->
  <g>
    <g id="Layer_1">
      <path d="M25,0C11.2,0,0,11.2,0,25s9.2,22.9,21.3,24.7l1.3.2v-19.7h-5.9v-4h5.9v-5.3c0-3.3.8-5.4,2.1-6.8s3.2-2,5.9-2,3,.1,3.8.2v3.3h-2.8c-1.6,0-2.9.9-3.5,2.1-.7,1.2-.9,2.6-.9,4v4.6h7l-.6,4h-6.3v19.8l1.3-.2c12.2-1.7,21.6-12.1,21.6-24.8,0-13.8-11.2-25-25-25ZM25,2.3c12.6,0,22.7,10.2,22.7,22.8s-7.9,20.2-18.4,22.2v-14.8h6l1.3-8.6h-7.3v-2.3c0-1.2.2-2.2.6-2.9s.7-.9,1.6-.9h5v-7.6h-1c-.7-.2-2.2-.4-5-.4s-5.7.8-7.5,2.7c-1.8,1.9-2.7,4.7-2.7,8.4v3h-5.9v8.6h5.9v14.7c-10.3-2.2-18-11.2-18-22.2,0-12.6,10.2-22.8,22.7-22.8Z"/>
    </g>
  </g>
</svg>