<?xml version="1.0" encoding="UTF-8"?>
<svg id="Layer_1" xmlns="http://www.w3.org/2000/svg" viewBox="0 0 50 50">
  <path d="M14.77,0C6.62,0,0,6.62,0,14.77v20.45c0,8.15,6.62,14.77,14.77,14.77h20.45c8.15,0,14.77-6.63,14.77-14.77V14.77c0-8.15-6.63-14.77-14.77-14.77H14.77ZM38.64,9.09c1.25,0,2.27,1.02,2.27,2.27s-1.02,2.27-2.27,2.27-2.27-1.02-2.27-2.27,1.02-2.27,2.27-2.27ZM25,12.5c6.9,0,12.5,5.6,12.5,12.5s-5.6,12.5-12.5,12.5-12.5-5.6-12.5-12.5,5.6-12.5,12.5-12.5ZM25,14.77c-5.64,0-10.23,4.59-10.23,10.23s4.59,10.23,10.23,10.23,10.23-4.59,10.23-10.23-4.59-10.23-10.23-10.23Z"/>
</svg>