<?xml version="1.0" encoding="UTF-8"?>
<svg id="Layer_1" xmlns="http://www.w3.org/2000/svg" viewBox="0 0 50 50">
  <path d="M14.77,0C6.63,0,0,6.63,0,14.77v20.45c0,8.14,6.63,14.77,14.77,14.77h20.45c8.14,0,14.77-6.63,14.77-14.77V14.77c0-8.14-6.63-14.77-14.77-14.77H14.77ZM14.77,2.27h20.45c6.92,0,12.5,5.58,12.5,12.5v20.45c0,6.92-5.58,12.5-12.5,12.5H14.77c-6.92,0-12.5-5.58-12.5-12.5V14.77C2.27,7.86,7.86,2.27,14.77,2.27ZM38.64,9.09c-1.26,0-2.27,1.02-2.27,2.27s1.02,2.27,2.27,2.27,2.27-1.02,2.27-2.27-1.02-2.27-2.27-2.27ZM25,12.5c-6.89,0-12.5,5.61-12.5,12.5s5.61,12.5,12.5,12.5,12.5-5.61,12.5-12.5-5.61-12.5-12.5-12.5ZM25,14.77c5.66,0,10.23,4.57,10.23,10.23s-4.57,10.23-10.23,10.23-10.23-4.57-10.23-10.23,4.57-10.23,10.23-10.23Z"/>
</svg>