<?xml version="1.0" encoding="UTF-8"?>
<svg id="Layer_1" xmlns="http://www.w3.org/2000/svg" viewBox="0 0 99.6 48">
  <path d="M24,0C37.26,0,48,10.74,48,24s-10.74,24-24,24S0,37.26,0,24,10.74,0,24,0ZM32.28,33.78c.44-1.35,2.51-14.85,2.76-17.51.08-.81-.18-1.34-.67-1.58-.6-.29-1.5-.15-2.53.23-1.42.51-19.59,8.23-20.64,8.67-.99.42-1.94.88-1.94,1.55,0,.47.28.73,1.05,1.01.8.29,2.81.9,4,1.22,1.14.32,2.45.04,3.18-.41.77-.48,9.71-6.46,10.35-6.98.64-.52,1.15.15.63.67-.52.52-6.66,6.48-7.47,7.3-.98,1-.29,2.04.37,2.45.75.47,6.16,4.1,6.98,4.69.82.58,1.64.85,2.4.85.76,0,1.15-1,1.53-2.16Z"/>
</svg>