<?xml version="1.0" encoding="UTF-8"?>
<svg xmlns="http://www.w3.org/2000/svg" version="1.1" viewBox="0 0 50 50">
  <!-- Generator: Adobe Illustrator 28.6.0, SVG Export Plug-In . SVG Version: 1.2.0 Build 709)  -->
  <g>
    <g id="Layer_1">
      <path d="M25,0C11.2,0,0,11.2,0,25s11.2,25,25,25,25-11.2,25-25S38.8,0,25,0ZM25,1.5c13,0,23.5,10.5,23.5,23.5s-10.5,23.5-23.5,23.5S1.5,38,1.5,25,12,1.5,25,1.5ZM35.3,15.2c-.6,0-1.3,0-2.1.4-1.5.5-20.4,8.6-21.5,9-1,.4-2,.9-2,1.6s.3.8,1.1,1.1c.8.3,2.9.9,4.2,1.3,1.2.3,2.6,0,3.3-.4.8-.5,10.1-6.7,10.8-7.3s1.2.2.7.7-6.9,6.7-7.8,7.6c-1,1-.3,2.1.4,2.6.8.5,6.4,4.3,7.3,4.9s1.7.9,2.5.9,1.2-1,1.6-2.2c.5-1.4,2.6-15.5,2.9-18.2,0-.8-.2-1.4-.7-1.6-.2,0-.3-.1-.5-.1h0Z"/>
    </g>
  </g>
</svg>