<?xml version="1.0" encoding="UTF-8"?>
<svg id="Layer_1" xmlns="http://www.w3.org/2000/svg" viewBox="0 0 50 50">
  <path d="M8.33,0C3.74,0,0,3.74,0,8.33v33.33c0,4.59,3.74,8.33,8.33,8.33h33.33c4.59,0,8.33-3.74,8.33-8.33V8.33c0-4.59-3.74-8.33-8.33-8.33H8.33ZM8.33,2.38h33.33c3.3,0,5.95,2.65,5.95,5.95v33.33c0,3.3-2.65,5.95-5.95,5.95H8.33c-3.3,0-5.95-2.65-5.95-5.95V8.33c0-3.3,2.65-5.95,5.95-5.95ZM10.82,10.71l10.98,15.6-11.08,12.97h2.98l9.45-11.06,7.78,11.06h9.45l-12.05-17.13,9.77-11.44h-2.98l-8.14,9.54-6.71-9.54h-9.45ZM15.37,13.1h3.65l16.79,23.81h-3.65L15.37,13.1Z"/>
</svg>