<?xml version="1.0" encoding="UTF-8"?>
<svg id="Layer_1" xmlns="http://www.w3.org/2000/svg" width="21.75" height="24.01" viewBox="0 0 21.75 24.01">
  <defs>
    <style>
      .cls-1 {
        fill-rule: evenodd;
      }

      .cls-1, .cls-2 {
        fill: #09244b;
      }
    </style>
  </defs>
  <g id="shield">
    <g id="System">
      <g id="safe_shield_fill">
        <path id="_路径" data-name="路径" class="cls-2" d="M7.87,9.69l3-1.12,3,1.12v2.33c0,1.14-.64,2.18-1.66,2.68l-1.34.67-1.34-.67c-1.02-.51-1.66-1.55-1.66-2.68v-2.33Z"/>
        <path id="_形状" data-name="形状" class="cls-1" d="M11.72.15c-.55-.21-1.15-.21-1.7,0L1.57,3.33c-.94.35-1.57,1.26-1.57,2.26v6.48c0,4.12,2.33,7.88,6.01,9.72l4.05,2.03c.51.26,1.11.26,1.62,0l4.05-2.03c3.68-1.84,6.01-5.61,6.01-9.72v-6.48c0-1.01-.62-1.91-1.57-2.26L11.72.15ZM11.51,5.51c-.41-.15-.86-.15-1.27,0l-4.23,1.59c-.71.27-1.18.94-1.18,1.7v3.24c0,2.29,1.29,4.38,3.34,5.4l2.03,1.01c.43.21.93.21,1.35,0l2.03-1.01c2.05-1.02,3.34-3.11,3.34-5.4v-3.24c0-.76-.47-1.43-1.18-1.7l-4.23-1.59Z"/>
      </g>
    </g>
  </g>
</svg>